<?xml version="1.0" encoding="UTF-8"?>
<svg xmlns="http://www.w3.org/2000/svg" xmlns:xlink="http://www.w3.org/1999/xlink" width="613pt" height="614pt" viewBox="0 0 613 614" version="1.1">
<defs>
<clipPath id="clip0">
  <rect width="613" height="614"/>
</clipPath>
</defs>
<g id="surface0" clip-path="url(#clip0)">
<path style="fill: none; stroke-width: 0.1; stroke-linecap: butt; stroke-linejoin: miter; stroke: rgb(100%,100%,100%); opacity: 1;stroke-miterlimit: 10;" d="M 0 0 L 613 0 L 613 614 L 0 614 L 0 0 Z M 0 0 " transform="matrix(1,0,0,1,0,0)"/>
<path style="stroke: none; fill-rule: nonzero; fill: rgb(100%,100%,100%); opacity: 1;" d="M 0 0 L 613 0 L 613 614 L 0 614 L 0 0 Z M 0 0 "/>
<path style="fill: none; stroke-width: 0.1; stroke-linecap: butt; stroke-linejoin: miter; stroke: rgb(0%,0%,0%); opacity: 1;stroke-miterlimit: 10;" d="M 66.547211 18.794006 C 72.981079 17.900528 79.492996 17.681183 85.982895 17.747513 C 227.653046 17.751038 369.323044 17.748001 510.993301 17.749023 C 528.436264 17.899368 546.782745 16.356674 563.095352 23.820465 C 575.648178 29.17218 585.584686 39.950317 590.272308 52.72644 C 594.198959 62.969421 595.52623 74.064819 595.250793 84.985138 C 595.26503 236.970612 595.222092 388.976425 595.273819 540.949112 C 594.626556 556.575363 589.911865 573.049377 578.063797 583.917892 C 566.555557 594.617111 550.402969 598.382004 535.089645 598.741135 C 389.725861 598.759476 244.361816 598.743652 98.997925 598.749023 C 84.444687 598.444443 69.55629 600.022858 55.372375 595.896713 C 42.590866 592.515228 30.826447 584.48024 24.194611 572.891693 C 18.365738 562.983978 15.909653 551.413589 15.501617 540.021393 C 15.502365 392.011703 15.501801 244.002029 15.501923 95.992325 C 15.612701 85.644012 14.87973 75.172928 17.126907 64.981598 C 19.709854 51.375549 26.588013 38.172852 37.951859 29.913742 C 46.262054 23.68956 56.361115 20.31926 66.547211 18.794006 Z M 66.547211 18.794006 " transform="matrix(1,0,0,1,0,0)"/>
<path style="stroke: none; fill-rule: nonzero; fill: rgb(0%,0%,0%); opacity: 1;" d="M 66.547211 18.794006 C 72.981079 17.900528 79.492996 17.681183 85.982895 17.747513 C 227.653046 17.751038 369.323044 17.748001 510.993301 17.749023 C 528.436264 17.899368 546.782745 16.356674 563.095352 23.820465 C 575.648178 29.17218 585.584686 39.950317 590.272308 52.72644 C 594.198959 62.969421 595.52623 74.064819 595.250793 84.985138 C 595.26503 236.970612 595.222092 388.976425 595.273819 540.949112 C 594.626556 556.575363 589.911865 573.049377 578.063797 583.917892 C 566.555557 594.617111 550.402969 598.382004 535.089645 598.741135 C 389.725861 598.759476 244.361816 598.743652 98.997925 598.749023 C 84.444687 598.444443 69.55629 600.022858 55.372375 595.896713 C 42.590866 592.515228 30.826447 584.48024 24.194611 572.891693 C 18.365738 562.983978 15.909653 551.413589 15.501617 540.021393 C 15.502365 392.011703 15.501801 244.002029 15.501923 95.992325 C 15.612701 85.644012 14.87973 75.172928 17.126907 64.981598 C 19.709854 51.375549 26.588013 38.172852 37.951859 29.913742 C 46.262054 23.68956 56.361115 20.31926 66.547211 18.794006 Z M 66.547211 18.794006 "/>
<path style="fill: none; stroke-width: 0.1; stroke-linecap: butt; stroke-linejoin: miter; stroke: rgb(100%,100%,100%); opacity: 1;stroke-miterlimit: 10;" d="M 297.521912 92.733459 C 309.824677 90.744751 322.807068 92.489777 333.935425 98.194397 C 350.289871 106.13063 362.506546 122.016434 366.01651 139.850266 C 368.946976 154.193558 366.456329 169.604507 358.99321 182.215881 C 351.184586 195.59404 337.977875 205.742676 322.983398 209.688339 C 305.689713 214.373825 286.278961 210.980652 271.874298 200.232971 C 259.150009 191.042175 250.394699 176.584366 248.09549 161.062347 C 246.298523 148.738571 248.088165 135.783112 253.879623 124.695511 C 262.214554 107.886856 278.994598 95.635468 297.521912 92.733459 Z M 297.521912 92.733459 " transform="matrix(1,0,0,1,0,0)"/>
<path style="stroke: none; fill-rule: nonzero; fill: rgb(100%,100%,100%); opacity: 1;" d="M 297.521912 92.733459 C 309.824677 90.744751 322.807068 92.489777 333.935425 98.194397 C 350.289871 106.13063 362.506546 122.016434 366.01651 139.850266 C 368.946976 154.193558 366.456329 169.604507 358.99321 182.215881 C 351.184586 195.59404 337.977875 205.742676 322.983398 209.688339 C 305.689713 214.373825 286.278961 210.980652 271.874298 200.232971 C 259.150009 191.042175 250.394699 176.584366 248.09549 161.062347 C 246.298523 148.738571 248.088165 135.783112 253.879623 124.695511 C 262.214554 107.886856 278.994598 95.635468 297.521912 92.733459 Z M 297.521912 92.733459 "/>
<path style="fill: none; stroke-width: 0.1; stroke-linecap: butt; stroke-linejoin: miter; stroke: rgb(100%,100%,100%); opacity: 1;stroke-miterlimit: 10;" d="M 255.26001 224.344238 C 260.368362 221.583145 266.25827 220.734161 272.000153 220.738525 C 296.01622 220.783508 320.033707 220.700272 344.049606 220.779358 C 353.263107 220.797867 362.164078 224.810043 368.513245 231.437424 C 392.743652 255.538803 416.855118 279.762085 441.041016 303.909698 C 444.655258 307.65155 448.598175 311.101685 451.830292 315.19957 C 455.500397 319.85939 457.213791 326.174744 455.7677 331.998215 C 453.680405 341.311584 444.467209 348.36554 434.93631 348.015167 C 429.259277 347.912704 423.959656 345.126099 420.022507 341.151825 C 403.345932 324.483063 386.680466 307.803284 370.001892 291.137222 C 369.98877 306.343826 370.016891 321.550705 369.98793 336.758179 C 327.90834 336.734863 285.829086 336.758514 243.749817 336.746323 C 243.745209 321.624069 243.753738 306.502487 243.745804 291.381149 C 230.233978 305.285355 216.45874 318.934341 202.864059 332.758606 C 198.041763 337.250137 193.952744 342.845535 187.787781 345.611526 C 181.641113 348.57869 174.036575 348.506271 168.138245 344.966187 C 161.332443 341.175842 157.203262 332.995743 158.543961 325.273392 C 159.384506 319.619766 162.678177 314.638351 166.797165 310.803528 C 190.868637 286.860168 214.594803 262.580597 238.704269 238.673477 C 243.989014 233.654343 248.62796 227.687744 255.26001 224.344238 Z M 255.26001 224.344238 " transform="matrix(1,0,0,1,0,0)"/>
<path style="stroke: none; fill-rule: nonzero; fill: rgb(100%,100%,100%); opacity: 1;" d="M 255.26001 224.344238 C 260.368362 221.583145 266.25827 220.734161 272.000153 220.738525 C 296.01622 220.783508 320.033707 220.700272 344.049606 220.779358 C 353.263107 220.797867 362.164078 224.810043 368.513245 231.437424 C 392.743652 255.538803 416.855118 279.762085 441.041016 303.909698 C 444.655258 307.65155 448.598175 311.101685 451.830292 315.19957 C 455.500397 319.85939 457.213791 326.174744 455.7677 331.998215 C 453.680405 341.311584 444.467209 348.36554 434.93631 348.015167 C 429.259277 347.912704 423.959656 345.126099 420.022507 341.151825 C 403.345932 324.483063 386.680466 307.803284 370.001892 291.137222 C 369.98877 306.343826 370.016891 321.550705 369.98793 336.758179 C 327.90834 336.734863 285.829086 336.758514 243.749817 336.746323 C 243.745209 321.624069 243.753738 306.502487 243.745804 291.381149 C 230.233978 305.285355 216.45874 318.934341 202.864059 332.758606 C 198.041763 337.250137 193.952744 342.845535 187.787781 345.611526 C 181.641113 348.57869 174.036575 348.506271 168.138245 344.966187 C 161.332443 341.175842 157.203262 332.995743 158.543961 325.273392 C 159.384506 319.619766 162.678177 314.638351 166.797165 310.803528 C 190.868637 286.860168 214.594803 262.580597 238.704269 238.673477 C 243.989014 233.654343 248.62796 227.687744 255.26001 224.344238 Z M 255.26001 224.344238 "/>
<path style="fill: none; stroke-width: 0.1; stroke-linecap: butt; stroke-linejoin: miter; stroke: rgb(100%,100%,100%); opacity: 1;stroke-miterlimit: 10;" d="M 205.536423 398.585526 C 218.367111 385.777985 231.172806 372.945724 244.000031 360.134964 C 259.898178 376.061646 275.864655 391.921158 291.710999 407.899963 C 280.110382 419.516876 268.504242 431.128265 256.88295 442.724792 C 268.951462 454.4646 280.789337 466.445007 292.722702 478.327087 C 297.476135 482.960251 300.466187 489.631104 299.714676 496.343979 C 298.993607 507.039688 288.874893 516.103973 278.131714 515.459564 C 271.559998 515.119827 265.653061 511.426071 261.325302 506.655182 C 242.448685 486.898514 223.361862 467.3423 204.520447 447.551666 C 196.030701 437.69516 192.781006 423.258789 197.005447 410.863297 C 198.640671 406.047104 201.80278 401.966827 205.536423 398.585526 Z M 205.536423 398.585526 " transform="matrix(1,0,0,1,0,0)"/>
<path style="stroke: none; fill-rule: nonzero; fill: rgb(100%,100%,100%); opacity: 1;" d="M 205.536423 398.585526 C 218.367111 385.777985 231.172806 372.945724 244.000031 360.134964 C 259.898178 376.061646 275.864655 391.921158 291.710999 407.899963 C 280.110382 419.516876 268.504242 431.128265 256.88295 442.724792 C 268.951462 454.4646 280.789337 466.445007 292.722702 478.327087 C 297.476135 482.960251 300.466187 489.631104 299.714676 496.343979 C 298.993607 507.039688 288.874893 516.103973 278.131714 515.459564 C 271.559998 515.119827 265.653061 511.426071 261.325302 506.655182 C 242.448685 486.898514 223.361862 467.3423 204.520447 447.551666 C 196.030701 437.69516 192.781006 423.258789 197.005447 410.863297 C 198.640671 406.047104 201.80278 401.966827 205.536423 398.585526 Z M 205.536423 398.585526 "/>
<path style="fill: none; stroke-width: 0.1; stroke-linecap: butt; stroke-linejoin: miter; stroke: rgb(100%,100%,100%); opacity: 1;stroke-miterlimit: 10;" d="M 321.997864 407.861404 C 337.922775 391.961594 353.821304 376.035614 369.741791 360.131424 C 383.078766 373.510025 396.472687 386.830124 409.940536 400.074402 C 422.860672 412.829285 420.405243 435.204544 408.781906 447.988434 C 389.695297 467.85437 370.668304 487.779739 351.546844 507.612686 C 346.25705 513.3461 338.012665 516.911957 330.227722 514.935104 C 320.746719 512.876022 313.516632 503.529083 313.981033 493.824524 C 314.092758 487.12294 317.92244 481.16246 322.664093 476.695557 C 334.185089 465.394653 345.656281 454.043594 357.029755 442.591156 C 345.075531 431.300201 333.701508 419.409897 321.997864 407.861404 Z M 321.997864 407.861404 " transform="matrix(1,0,0,1,0,0)"/>
<path style="stroke: none; fill-rule: nonzero; fill: rgb(100%,100%,100%); opacity: 1;" d="M 321.997864 407.861404 C 337.922775 391.961594 353.821304 376.035614 369.741791 360.131424 C 383.078766 373.510025 396.472687 386.830124 409.940536 400.074402 C 422.860672 412.829285 420.405243 435.204544 408.781906 447.988434 C 389.695297 467.85437 370.668304 487.779739 351.546844 507.612686 C 346.25705 513.3461 338.012665 516.911957 330.227722 514.935104 C 320.746719 512.876022 313.516632 503.529083 313.981033 493.824524 C 314.092758 487.12294 317.92244 481.16246 322.664093 476.695557 C 334.185089 465.394653 345.656281 454.043594 357.029755 442.591156 C 345.075531 431.300201 333.701508 419.409897 321.997864 407.861404 Z M 321.997864 407.861404 "/>
</g>
</svg>
