<?xml version="1.0" encoding="UTF-8" standalone="no"?>
<!-- Created with Inkscape (http://www.inkscape.org/) -->
<svg
   xmlns:svg="http://www.w3.org/2000/svg"
   xmlns="http://www.w3.org/2000/svg"
   version="1.0"
   width="91.999969"
   height="92.174423"
   id="svg2">
  <defs
     id="defs4" />
  <rect
     width="37.479908"
     height="89.559555"
     x="27.238304"
     y="1.525345"
     style="opacity:1;fill:#ffffff;fill-opacity:1;stroke:#000000;stroke-width:0.69999999;stroke-linecap:round;stroke-linejoin:round;stroke-miterlimit:4;stroke-dasharray:none;stroke-dashoffset:0;stroke-opacity:1"
     id="rect2159" />
  <g
     transform="translate(-82.57143,-20.141799)"
     id="layer1">
    <path
       d="M 89.085414,112.05267 C 87.650697,111.74342 85.927531,110.85958 85.025492,109.97028 C 84.04794,109.00655 83.404332,107.86278 82.943247,106.26991 L 82.57143,104.98541 L 82.57143,66.464446 C 82.57143,30.455654 82.589595,27.872845 82.849981,26.860414 C 83.539308,24.18016 85.003136,22.262787 87.155345,21.221094 C 89.537408,20.068147 86.666804,20.14278 128.63091,20.14278 C 170.43029,20.14278 167.83805,20.077846 170.08006,21.181037 C 172.21216,22.23015 173.649,24.17258 174.27883,26.857237 C 174.55741,28.044648 174.5714,29.943555 174.5714,66.544866 C 174.5714,102.50928 174.55342,105.05535 174.29225,106.07108 C 173.45564,109.32472 171.32917,111.38313 168.09693,112.06809 C 166.48949,112.40873 90.668639,112.39394 89.085414,112.05267 z M 124.53067,103.90279 C 125.42173,103.63581 126.63784,102.44054 126.86565,101.60779 C 126.9872,101.16346 127.04193,96.324635 127.04254,85.966189 L 127.04344,70.967941 L 127.68363,70.967941 L 128.3238,70.967941 L 128.3672,86.207448 L 128.41057,101.44695 L 128.75681,102.09031 C 129.67794,103.80189 131.69811,104.523 133.68007,103.84767 C 134.58609,103.53895 135.63344,102.45974 135.87648,101.58442 C 135.99547,101.15594 136.04892,93.052648 136.04953,75.350807 L 136.05043,49.737178 L 136.69379,49.737178 L 137.33714,49.737178 L 137.33714,59.312272 C 137.33714,69.716473 137.31868,69.49111 138.24217,70.354562 C 139.83609,71.844859 142.40446,71.125163 142.96859,69.030157 C 143.08454,68.5996 143.12272,64.842731 143.08664,57.416844 C 143.03923,47.656473 143.00349,46.354477 142.7641,45.668497 C 141.67256,42.540604 139.39817,40.370262 136.4944,39.685629 C 134.98462,39.329665 120.14261,39.333012 118.75381,39.689631 C 115.63548,40.490365 113.13704,43.066902 112.48214,46.157338 C 112.1273,47.831834 112.13754,68.466364 112.49364,69.31862 C 112.82689,70.116199 113.16981,70.474884 113.93506,70.826286 C 115.34765,71.47495 116.98522,70.9752 117.66608,69.687659 L 118.03646,68.987277 L 118.03646,59.362228 L 118.03646,49.737178 L 118.67981,49.737178 L 119.32317,49.737178 L 119.32317,75.200986 C 119.32317,103.85756 119.23651,101.83227 120.5153,103.0635 C 120.88748,103.42183 121.441,103.79443 121.74534,103.89148 C 122.50787,104.13467 123.74003,104.13967 124.53067,103.90279 z M 129.86712,37.672686 C 132.66194,36.727772 134.41167,34.07522 134.2509,31.026988 C 134.1277,28.691064 132.76861,26.636228 130.66034,25.59833 C 128.48441,24.52713 126.15953,24.645699 124.1738,25.929144 C 119.44197,28.987473 120.4351,36.057473 125.83715,37.770402 C 126.85193,38.092177 128.76345,38.045828 129.86712,37.672686 z "
       style="fill:#000000"
       id="path2170" />
  </g>
</svg>
