<?xml version="1.0" encoding="UTF-8" standalone="no"?>
<!-- Created with Inkscape (http://www.inkscape.org/) -->
<svg
   xmlns:dc="http://purl.org/dc/elements/1.1/"
   xmlns:cc="http://web.resource.org/cc/"
   xmlns:rdf="http://www.w3.org/1999/02/22-rdf-syntax-ns#"
   xmlns:svg="http://www.w3.org/2000/svg"
   xmlns="http://www.w3.org/2000/svg"
   xmlns:sodipodi="http://inkscape.sourceforge.net/DTD/sodipodi-0.dtd"
   xmlns:inkscape="http://www.inkscape.org/namespaces/inkscape"
   id="svg2216"
   sodipodi:version="0.32"
   inkscape:version="0.43"
   width="589"
   height="589"
   sodipodi:docbase="C:\Documents and Settings\Owner\Desktop\SVG"
   sodipodi:docname="Aiga_toiletsq_women_inv.svg"
   version="1.0">
  <metadata
     id="metadata2221">
    <rdf:RDF>
      <cc:Work
         rdf:about="">
        <dc:format>image/svg+xml</dc:format>
        <dc:type
           rdf:resource="http://purl.org/dc/dcmitype/StillImage" />
      </cc:Work>
    </rdf:RDF>
  </metadata>
  <defs
     id="defs2219" />
  <sodipodi:namedview
     inkscape:window-height="543"
     inkscape:window-width="756"
     inkscape:pageshadow="2"
     inkscape:pageopacity="0.0"
     borderopacity="1.0"
     bordercolor="#666666"
     pagecolor="#ffffff"
     id="base"
     inkscape:zoom="0.35254022"
     inkscape:cx="288.0504"
     inkscape:cy="264.471"
     inkscape:window-x="211"
     inkscape:window-y="103"
     inkscape:current-layer="svg2216" />
  <g
     id="g2225"
     transform="translate(-8.509692,-11.34622)">
    <g
       id="g2231">
      <path
         sodipodi:nodetypes="cccccccc"
         id="path2229"
         d="M 164.52023,368.90423 L 212.74168,119.13534 L 306.5,28.365557 L 397.42176,113.46223 L 445.64321,403.09487 L 428.4719,559.10544 L 198.5589,561.942 L 164.52023,368.90423 z "
         style="fill:#fdfdfd" />
      <path
         id="path2227"
         d="M 67.366614,596.95568 C 43.319147,593.78405 27.614525,581.32852 20.239301,559.57841 L 17.5,551.5 L 17.5,309 C 17.5,77.524257 17.582726,66.208441 19.319724,60.086583 C 25.299679,39.010886 38.416064,25.712441 59.5,19.348591 C 65.206832,17.626075 77.15343,17.523194 304,17.243007 C 568.93468,16.915776 550.86437,16.479218 565.66668,23.564571 C 581.25607,31.026666 591.40677,45.052976 595.02507,64.132189 C 595.59141,67.118473 595.98253,164.00939 596.01267,308.7883 C 596.06161,543.82327 596.02428,548.64912 594.09943,556.14353 C 588.67301,577.27133 576.90377,589.10665 555.14353,595.31814 L 547.5,597.5 L 310.5,597.63231 C 180.15,597.70507 70.739976,597.40059 67.366614,596.95568 z M 292.17327,548.04355 C 293.66967,547.94676 299.1798,542.56456 300.78592,539.63088 C 302.346,536.78129 302.54492,530.03136 303,464.5 L 303.5,392.5 L 308.25,392.19521 L 313,391.89042 L 313,460.30872 C 313,501.95799 313.39314,530.80006 314.00483,534.02545 C 315.86754,543.8475 322.36639,549.14286 332.55799,549.14286 C 339.91868,549.14286 345.64919,545.94949 348.98743,539.98743 L 351.5,535.5 L 351.79927,464.25 L 352.09854,393 L 376.54927,393 C 399.6461,393 401,392.89787 401,391.15553 C 401,390.14107 389.08194,348.19412 374.51543,297.9401 C 359.7953,247.1561 348.41172,206.18828 348.88827,205.71173 C 349.35985,205.24015 351.23075,204.99959 353.04583,205.17716 C 356.9914,205.56314 354.7075,199.13462 374.44693,265.41522 C 389.61693,316.35271 390.77361,319.28021 397.00203,322.50105 C 401.4257,324.78862 409.05913,324.4287 413.10212,321.74193 C 418.32938,318.26814 421.26221,311.74322 420.62731,305 C 420.01191,298.46385 386.03621,185.72229 382.50537,178.5 C 375.38327,163.93179 359.85726,151.92358 344.46426,149.07803 C 335.36898,147.39667 278.09608,147.69651 269.73019,149.46928 C 255.82043,152.41682 241.96117,162.96233 235.19159,175.74972 C 233.04719,179.80038 225.36793,203.54902 213.36513,243.24956 C 193.64496,308.47612 193.63435,308.52465 197.46814,315.9384 C 201.22252,323.19856 212.24482,326.2385 219.67439,322.06285 C 221.79737,320.86967 224.50554,318.45491 225.69254,316.69671 C 226.91283,314.88922 234.66339,290.46735 243.52722,260.5 C 252.14929,231.35 259.66298,206.9375 260.2243,206.25 C 260.78562,205.5625 262.53979,205 264.12244,205 C 266.25228,205 267,205.4792 267,206.84416 C 267,207.85845 255.33437,249.14595 241.07637,298.59416 C 226.81837,348.04237 215.00587,389.4 214.82637,390.5 C 214.50907,392.44439 215.19508,392.5139 239.5,393 L 264.5,393.5 L 265,465.5 C 265.48713,535.6464 265.5524,537.58919 267.53538,540.96462 C 271.15013,547.1176 279.37377,550.3603 287.5,548.83695 C 289.7,548.42453 291.80297,548.0675 292.17327,548.04355 z M 325.29257,134.24387 C 345.70604,124.69125 354.16361,100.134 343.9847,79.969695 C 326.53245,45.396985 274.8718,53.856314 268.89197,92.265981 C 265.86547,111.70584 276.86907,129.24835 296.48694,136.25931 C 304.50265,139.12393 316.68567,138.27152 325.29257,134.24387 z "
         style="fill:#000000" />
    </g>
  </g>
</svg>
